<svg width="137" height="34" viewBox="0 0 137 34" fill="none" xmlns="http://www.w3.org/2000/svg">
<path d="M50.6049 12.9054C50.2583 12.2668 49.7565 11.7834 49.0997 11.455C48.4611 11.1084 47.704 10.935 46.8283 10.935C45.3139 10.935 44.1008 11.4368 43.1885 12.4402C42.2762 13.4254 41.8202 14.7482 41.8202 16.4084C41.8202 18.1781 42.2946 19.5647 43.2432 20.5681C44.2102 21.5533 45.5329 22.0459 47.2114 22.0459C48.3608 22.0459 49.3278 21.754 50.1123 21.1702C50.9151 20.5863 51.4988 19.7471 51.8638 18.6524H45.9252V15.2042H56.1056V19.5555C55.759 20.7232 55.166 21.8088 54.3268 22.8122C53.5058 23.8156 52.4567 24.6276 51.1796 25.2478C49.9025 25.8681 48.4611 26.1783 46.8556 26.1783C44.9582 26.1783 43.2614 25.7678 41.7654 24.9468C40.2876 24.1076 39.1291 22.949 38.2899 21.4712C37.4688 19.9934 37.0583 18.3058 37.0583 16.4084C37.0583 14.5109 37.4688 12.8233 38.2899 11.3455C39.1291 9.84951 40.2876 8.69095 41.7654 7.86995C43.2432 7.03073 44.9308 6.61108 46.8283 6.61108C49.1271 6.61108 51.061 7.16757 52.63 8.28045C54.2173 9.39333 55.2664 10.935 55.7772 12.9054H50.6049ZM63.3775 13.3159C63.9248 12.4767 64.609 11.8199 65.43 11.3455C66.251 10.8529 67.1632 10.6066 68.1666 10.6066V15.56H66.8804C65.7128 15.56 64.8371 15.8155 64.2532 16.3263C63.6693 16.8189 63.3775 17.6946 63.3775 18.9535V26.0415H58.6978V10.7708H63.3775V13.3159ZM77.3546 26.2604C75.8585 26.2604 74.5085 25.9412 73.3043 25.3026C72.1184 24.664 71.1788 23.7518 70.4856 22.5659C69.8104 21.38 69.473 19.9934 69.473 18.4061C69.473 16.8371 69.8196 15.4597 70.5129 14.2738C71.2061 13.0696 72.1549 12.1483 73.3591 11.5097C74.5632 10.8711 75.9132 10.5519 77.4093 10.5519C78.9054 10.5519 80.2555 10.8711 81.4596 11.5097C82.6638 12.1483 83.6124 13.0696 84.3058 14.2738C84.999 15.4597 85.3457 16.8371 85.3457 18.4061C85.3457 19.9752 84.9899 21.3618 84.2784 22.5659C83.5851 23.7518 82.6272 24.664 81.4049 25.3026C80.2007 25.9412 78.8506 26.2604 77.3546 26.2604ZM77.3546 22.2101C78.2486 22.2101 79.0057 21.8817 79.626 21.2249C80.2645 20.5681 80.5839 19.6285 80.5839 18.4061C80.5839 17.1838 80.2737 16.2442 79.6534 15.5874C79.0513 14.9306 78.3033 14.6022 77.4093 14.6022C76.4971 14.6022 75.74 14.9306 75.1379 15.5874C74.5358 16.226 74.2348 17.1655 74.2348 18.4061C74.2348 19.6285 74.5267 20.5681 75.1105 21.2249C75.7126 21.8817 76.4606 22.2101 77.3546 22.2101ZM109.749 10.7708L105.616 26.0415H100.444L98.0362 16.1347L95.5458 26.0415H90.4009L86.2411 10.7708H90.9208L93.0828 21.6902L95.6553 10.7708H100.608L103.208 21.6354L105.343 10.7708H109.749ZM119.196 14.6569H116.679V26.0415H111.999V14.6569H110.302V10.7708H111.999V10.333C111.999 8.45381 112.537 7.03074 113.614 6.06374C114.69 5.07854 116.268 4.58594 118.348 4.58594C118.694 4.58594 118.95 4.59506 119.114 4.6133V8.58148C118.221 8.52675 117.591 8.65442 117.226 8.96462C116.861 9.27481 116.679 9.83119 116.679 10.634V10.7708H119.196V14.6569ZM136.994 10.7708L127.416 33.2936H122.38L125.883 25.5215L119.671 10.7708H124.898L128.429 20.3218L131.931 10.7708H136.994Z" fill="white"/>
<path d="M16.1565 8.14775C16.1565 4.07852 19.4552 0.779785 23.5244 0.779785H30.8924V8.14775C30.8924 12.217 27.5937 15.5157 23.5244 15.5157C19.4552 15.5157 16.1565 12.217 16.1565 8.14775Z" fill="#FF6D35"/>
<path d="M23.5243 33.193C19.4551 33.193 16.1564 29.8942 16.1564 25.825V18.457H23.5243C27.5936 18.457 30.8923 21.7558 30.8923 25.825C30.8923 29.8942 27.5936 33.193 23.5243 33.193Z" fill="#5CC97B"/>
<path d="M13.8348 16.168C13.8348 7.99126 7.70857 1.36279 0.151466 1.36279V25.5372C0.151466 29.6255 3.21458 32.9398 6.99325 32.9398C10.7718 32.9398 13.8348 29.6255 13.8348 25.5372V16.168Z" fill="#3D96F4"/>
</svg>
